<svg version="1.1" xmlns="http://www.w3.org/2000/svg" viewBox="0 0 2322.3447092607485 1395.9504845028832" width="4644.689418521497" height="2791.9009690057665">
  <!-- svg-source:excalidraw -->
  
  <defs>
    <style>
      @font-face {
        font-family: "Virgil";
        src: url("https://excalidraw.com/Virgil.woff2");
      }
      @font-face {
        font-family: "Cascadia";
        src: url("https://excalidraw.com/Cascadia.woff2");
      }
    </style>
  </defs>
  <rect x="0" y="0" width="2322.3447092607485" height="1395.9504845028832" fill="#ffffff"></rect><g transform="translate(103.77599781032364 474.77848009298765) rotate(0 64.5 17.5)"><text x="0" y="25" font-family="Virgil, Segoe UI Emoji" font-size="28px" fill="#000000" text-anchor="start" style="white-space: pre;" direction="ltr">CAD Flow</text></g><g stroke-linecap="round" transform="translate(72.7999752367055 597.5813875127164) rotate(0 59 31.436011904761926)"><path d="M-1.51 -1.47 C40.24 -2.35, 77.69 0.73, 117.01 1.95 M-0.69 0.54 C39.98 -0.89, 79.37 -0.79, 117.24 0.62 M118.3 0.75 C117.25 13.01, 117.01 30.49, 117.62 63.1 M117.03 0.63 C117.91 24.13, 117.38 45.58, 117.81 63.11 M118.62 64.31 C83.14 61.95, 45.5 64.31, 1.19 64.32 M117.99 62.48 C85.01 63.96, 50.94 64.09, -0.59 62.85 M0.6 61.64 C0.62 44.6, -0.75 24.06, 0.63 -0.53 M-0.09 62.84 C-0.67 38.58, 0.21 13.09, 0.3 0.61" stroke="#000000" stroke-width="1" fill="none"></path></g><g transform="translate(77.61297523670551 619.0173994174784) rotate(0 53.99999999999999 10)"><text x="54" y="14" font-family="Virgil, Segoe UI Emoji" font-size="16px" fill="#000000" text-anchor="middle" style="white-space: pre;" direction="ltr">Cad Manager</text></g><g transform="translate(10 683.9801422976165) rotate(0 148.5 20)"><text x="0" y="14" font-family="Virgil, Segoe UI Emoji" font-size="16px" fill="#000000" text-anchor="start" style="white-space: pre;" direction="ltr">Fetches queue messages on new CAd </text><text x="0" y="34" font-family="Virgil, Segoe UI Emoji" font-size="16px" fill="#000000" text-anchor="start" style="white-space: pre;" direction="ltr">files and initiates file processing </text></g><g stroke-linecap="round" transform="translate(696.1788377028242 302.59280812842184) rotate(0 67 31.436011904761926)"><path d="M0.79 0.59 C34 -1.76, 71.95 -0.66, 133.78 -1.02 M0.14 -0.3 C51.66 -0.39, 103.31 0.22, 133.57 0.63 M134.75 1.09 C132.15 21.53, 133.87 42.45, 135.55 64.23 M134.77 -0.23 C134.32 13.67, 132.7 27.11, 134.73 62.87 M132.96 62.9 C97.92 61, 65.82 61.91, 0.57 61.48 M134.76 62.5 C84.13 64.14, 33.3 64.06, -0.48 62.55 M-0.13 63.63 C1.74 41.99, -0.79 19.06, -1.99 0.79 M0.93 63.29 C-0.9 40.28, -1.35 18.63, 0.81 -0.43" stroke="#000000" stroke-width="1" fill="none"></path></g><g transform="translate(701.1183377028243 324.02882003318376) rotate(0 62 10)"><text x="62" y="14" font-family="Virgil, Segoe UI Emoji" font-size="16px" fill="#000000" text-anchor="middle" style="white-space: pre;" direction="ltr">Cad Converter*</text></g><g stroke-linecap="round"><g transform="translate(179.90432240468405 596.3449951863208) rotate(0 255.11455910355693 -116.33650197468619)"><path d="M-0.7 1.19 C84.34 -37.71, 425.89 -194.76, 510.93 -233.86 M1.13 0.76 C86.05 -37.97, 425.98 -193.96, 510.57 -232.81" stroke="#000000" stroke-width="1" fill="none"></path></g><g transform="translate(179.90432240468405 596.3449951863208) rotate(0 255.11455910355693 -116.33650197468619)"><path d="M491.2 -209.86 C495.38 -219.57, 503.79 -228.57, 510.75 -231.46 M488.98 -211.75 C494.38 -217.61, 501.28 -223.18, 510.47 -233.02" stroke="#000000" stroke-width="1" fill="none"></path></g><g transform="translate(179.90432240468405 596.3449951863208) rotate(0 255.11455910355693 -116.33650197468619)"><path d="M482.64 -228.51 C489.8 -231.51, 501.27 -233.85, 510.75 -231.46 M480.42 -230.4 C488.13 -231.14, 497.35 -231.65, 510.47 -233.02" stroke="#000000" stroke-width="1" fill="none"></path></g></g><g transform="translate(845.0988761314056 337.2959315922235) rotate(0 238.49999999999994 80)"><text x="0" y="14" font-family="Virgil, Segoe UI Emoji" font-size="16px" fill="#000000" text-anchor="start" style="white-space: pre;" direction="ltr">*dwg -(tailormade/oda*)-&gt; json -&gt; pickle* containing </text><text x="0" y="34" font-family="Virgil, Segoe UI Emoji" font-size="16px" fill="#000000" text-anchor="start" style="white-space: pre;" direction="ltr">only the geometry we care about </text><text x="0" y="54" font-family="Virgil, Segoe UI Emoji" font-size="16px" fill="#000000" text-anchor="start" style="white-space: pre;" direction="ltr"></text><text x="0" y="74" font-family="Virgil, Segoe UI Emoji" font-size="16px" fill="#000000" text-anchor="start" style="white-space: pre;" direction="ltr">*ODA - open design alliance - but we didn't use that</text><text x="0" y="94" font-family="Virgil, Segoe UI Emoji" font-size="16px" fill="#000000" text-anchor="start" style="white-space: pre;" direction="ltr">*Pickle - did not scale well. File used in multiple services </text><text x="0" y="114" font-family="Virgil, Segoe UI Emoji" font-size="16px" fill="#000000" text-anchor="start" style="white-space: pre;" direction="ltr">so had to maintain same version, we also wanted to use</text><text x="0" y="134" font-family="Virgil, Segoe UI Emoji" font-size="16px" fill="#000000" text-anchor="start" style="white-space: pre;" direction="ltr">the file in frontend to display the geometry. Going with a </text><text x="0" y="154" font-family="Virgil, Segoe UI Emoji" font-size="16px" fill="#000000" text-anchor="start" style="white-space: pre;" direction="ltr">readable and more accesible format would have been better</text></g><g stroke-linecap="round"><g transform="translate(762.110058109087 373.61022939926625) rotate(0 -280.70884006350286 115.26450182892184)"><path d="M1.02 0.31 C-92.65 38.76, -467.6 192.66, -561.25 231.1 M0.1 -0.57 C-93.84 37.48, -468.8 191.07, -562.44 229.3" stroke="#000000" stroke-width="1" fill="none"></path></g><g transform="translate(762.110058109087 373.61022939926625) rotate(0 -280.70884006350286 115.26450182892184)"><path d="M-539.71 208.38 C-547.27 216.5, -555.74 223.47, -563.72 230.68 M-539.4 209.05 C-545.81 215.02, -552.45 220.9, -561.54 230.09" stroke="#000000" stroke-width="1" fill="none"></path></g><g transform="translate(762.110058109087 373.61022939926625) rotate(0 -280.70884006350286 115.26450182892184)"><path d="M-531.94 227.37 C-542.42 228.6, -553.73 228.61, -563.72 230.68 M-531.63 228.04 C-540.47 228.42, -549.39 228.74, -561.54 230.09" stroke="#000000" stroke-width="1" fill="none"></path></g></g><g stroke-linecap="round" transform="translate(1102.293480245476 15.126866900731443) rotate(0 77 74.08519744873047)"><path d="M89.5 0.79 C100.25 1.53, 111.75 7.72, 120.94 13.97 C130.14 20.23, 139.16 29.26, 144.65 38.33 C150.15 47.4, 153.26 57.72, 153.92 68.4 C154.58 79.07, 152.94 92.44, 148.6 102.36 C144.27 112.28, 136.24 120.63, 127.92 127.91 C119.61 135.19, 109.19 142.91, 98.71 146.04 C88.23 149.18, 75.9 148.72, 65.05 146.71 C54.2 144.7, 42.67 139.98, 33.59 133.99 C24.51 128, 15.99 119.97, 10.58 110.77 C5.17 101.57, 2.11 89.54, 1.12 78.79 C0.14 68.04, 0.67 56.2, 4.66 46.28 C8.64 36.35, 16.62 26.49, 25.04 19.24 C33.46 11.99, 44.1 5.79, 55.18 2.78 C66.26 -0.24, 84.76 1.08, 91.51 1.15 C98.26 1.22, 95.91 2.09, 95.65 3.2 M70.49 1.04 C80.63 -0.83, 92.56 0.64, 102.95 4.37 C113.35 8.11, 124.92 15.75, 132.85 23.42 C140.78 31.1, 147.11 40.16, 150.55 50.41 C153.99 60.66, 154.96 74.2, 153.47 84.9 C151.98 95.61, 147.94 105.71, 141.61 114.62 C135.28 123.52, 125.34 132.97, 115.48 138.32 C105.63 143.67, 93.27 146.11, 82.49 146.73 C71.72 147.35, 61.24 145.84, 50.82 142.05 C40.39 138.25, 27.71 131.61, 19.94 123.99 C12.17 116.36, 7.61 106.35, 4.19 96.29 C0.78 86.24, -2.07 73.99, -0.54 63.64 C0.98 53.3, 6.77 43.15, 13.35 34.21 C19.93 25.27, 29.31 15.48, 38.92 10.01 C48.53 4.53, 65.63 2.61, 71.01 1.37 C76.4 0.13, 71.18 1.61, 71.24 2.58" stroke="#000000" stroke-width="1" fill="none"></path></g><g transform="translate(1107.2009802454759 76.71206434946191) rotate(0 72 12.5)"><text x="72" y="18" font-family="Virgil, Segoe UI Emoji" font-size="20px" fill="#000000" text-anchor="middle" style="white-space: pre;" direction="ltr">s3</text></g><g stroke-linecap="round"><g transform="translate(837.5358461931945 311.91864029725934) rotate(0 135.96874497365167 -92.53864245758984)"><path d="M0.46 -0.48 C45.88 -30.99, 227.37 -152.08, 272.7 -182.66 M-0.76 -1.78 C44.44 -32.7, 225.53 -154.37, 271.47 -184.6" stroke="#000000" stroke-width="1" fill="none"></path></g><g transform="translate(837.5358461931945 311.91864029725934) rotate(0 135.96874497365167 -92.53864245758984)"><path d="M252.9 -161.32 C259.81 -169.45, 263.25 -174.06, 269.79 -186.1 M252.84 -160.51 C258 -165.17, 262.58 -171.8, 271.82 -183.86" stroke="#000000" stroke-width="1" fill="none"></path></g><g transform="translate(837.5358461931945 311.91864029725934) rotate(0 135.96874497365167 -92.53864245758984)"><path d="M241.52 -178.4 C252.07 -181.2, 259.1 -180.42, 269.79 -186.1 M241.46 -177.59 C249.33 -178.26, 256.55 -180.93, 271.82 -183.86" stroke="#000000" stroke-width="1" fill="none"></path></g></g><g stroke-linecap="round" transform="translate(594.1101010873343 10) rotate(0 67.73687744140625 68.82304382324219)"><path d="M77.28 1.12 C86.72 1.38, 96.91 5.45, 104.9 10.9 C112.9 16.34, 120.2 25.04, 125.25 33.79 C130.31 42.55, 134.14 53.62, 135.23 63.45 C136.32 73.29, 135.18 83.78, 131.79 92.81 C128.4 101.85, 122.21 110.75, 114.9 117.67 C107.6 124.59, 97.16 131.11, 87.95 134.33 C78.74 137.56, 69.37 138.26, 59.62 137.03 C49.88 135.81, 37.86 132.33, 29.49 126.99 C21.11 121.65, 14.15 113.59, 9.36 104.98 C4.57 96.36, 1.54 85.23, 0.76 75.31 C-0.02 65.38, 1.18 54.77, 4.68 45.41 C8.17 36.06, 14.69 26.05, 21.72 19.16 C28.76 12.27, 36.93 7, 46.89 4.06 C56.85 1.13, 74.99 1.69, 81.49 1.57 C87.98 1.44, 85.98 2.3, 85.85 3.3 M97.18 6.16 C106.32 9.58, 116.28 19.64, 122.56 27.5 C128.84 35.37, 133.08 43.57, 134.86 53.34 C136.63 63.12, 135.66 76.11, 133.22 86.14 C130.78 96.17, 126.34 105.99, 120.22 113.51 C114.09 121.04, 105.38 127.47, 96.48 131.29 C87.58 135.12, 76.74 136.39, 66.81 136.45 C56.89 136.51, 45.91 135.83, 36.94 131.65 C27.97 127.47, 18.97 119.41, 12.98 111.37 C6.98 103.33, 3.03 93.47, 0.96 83.42 C-1.11 73.37, -1.65 60.85, 0.58 51.07 C2.81 41.29, 7.89 32.15, 14.33 24.76 C20.77 17.37, 30.29 10.89, 39.22 6.76 C48.15 2.62, 57.89 -0.25, 67.92 -0.06 C77.94 0.12, 94.23 6.5, 99.38 7.88 C104.52 9.25, 99.56 7.37, 98.78 8.19" stroke="#000000" stroke-width="1" fill="none"></path></g><g transform="translate(599.3471010873344 66.32304382324219) rotate(0 62.5 12.5)"><text x="62.5" y="18" font-family="Virgil, Segoe UI Emoji" font-size="20px" fill="#000000" text-anchor="middle" style="white-space: pre;" direction="ltr">mongo</text></g><g stroke-linecap="round"><g transform="translate(779.143417207513 292.9380788651724) rotate(0 -43.56018492477199 -72.39216399652598)"><path d="M0.67 -1.04 C-13.94 -25.14, -72.23 -120.22, -86.72 -144.06 M-0.44 1.03 C-15.31 -23.46, -73.37 -121.3, -87.79 -145.82" stroke="#000000" stroke-width="1" fill="none"></path></g><g transform="translate(779.143417207513 292.9380788651724) rotate(0 -43.56018492477199 -72.39216399652598)"><path d="M-66.34 -127.16 C-72.27 -133.5, -81.01 -140.5, -87.83 -145.52 M-65.34 -126.41 C-70.01 -130.5, -75.73 -135.85, -88.57 -145.98" stroke="#000000" stroke-width="1" fill="none"></path></g><g transform="translate(779.143417207513 292.9380788651724) rotate(0 -43.56018492477199 -72.39216399652598)"><path d="M-84 -116.72 C-83.32 -127.1, -85.4 -138.03, -87.83 -145.52 M-83 -115.96 C-83.74 -122.51, -85.56 -130.18, -88.57 -145.98" stroke="#000000" stroke-width="1" fill="none"></path></g></g><g transform="translate(923.926133860307 189.14839414566285) rotate(0 25 20)"><text x="0" y="14" font-family="Virgil, Segoe UI Emoji" font-size="16px" fill="#000000" text-anchor="start" style="white-space: pre;" direction="ltr">upload</text><text x="0" y="34" font-family="Virgil, Segoe UI Emoji" font-size="16px" fill="#000000" text-anchor="start" style="white-space: pre;" direction="ltr">files</text></g><g transform="translate(152.13846305875074 284.94706604972725) rotate(0 102.5 20)"><text x="0" y="14" font-family="Virgil, Segoe UI Emoji" font-size="16px" fill="#000000" text-anchor="start" style="white-space: pre;" direction="ltr">file metadata &amp; relation </text><text x="0" y="34" font-family="Virgil, Segoe UI Emoji" font-size="16px" fill="#000000" text-anchor="start" style="white-space: pre;" direction="ltr">to the building &amp; project</text></g><g stroke-linecap="round"><g transform="translate(161.41585493871122 585.2210426936074) rotate(0 210.07388562344482 -234.56304197271837)"><path d="M0.43 -0.99 C70.31 -79.46, 348.83 -392.06, 418.76 -470.23 M-0.81 1.1 C69.48 -77.3, 350.92 -390.84, 420.95 -469.2" stroke="#000000" stroke-width="1" fill="none"></path></g><g transform="translate(161.41585493871122 585.2210426936074) rotate(0 210.07388562344482 -234.56304197271837)"><path d="M408.13 -443.02 C410.91 -448.13, 414.14 -453.75, 421.49 -467.72 M409.13 -440.57 C413.04 -451.3, 417.2 -462.75, 420.65 -468.58" stroke="#000000" stroke-width="1" fill="none"></path></g><g transform="translate(161.41585493871122 585.2210426936074) rotate(0 210.07388562344482 -234.56304197271837)"><path d="M392.85 -456.71 C399.62 -458.35, 406.79 -460.44, 421.49 -467.72 M393.85 -454.26 C403.62 -459.93, 413.52 -466.23, 420.65 -468.58" stroke="#000000" stroke-width="1" fill="none"></path></g></g><g transform="translate(296.38903272020855 211.4552583240328) rotate(0 74 20)"><text x="0" y="14" font-family="Virgil, Segoe UI Emoji" font-size="16px" fill="#000000" text-anchor="start" style="white-space: pre;" direction="ltr">project processing </text><text x="0" y="34" font-family="Virgil, Segoe UI Emoji" font-size="16px" fill="#000000" text-anchor="start" style="white-space: pre;" direction="ltr">staus</text></g><g stroke-linecap="round" transform="translate(852.6798605447281 590.0216708713109) rotate(0 67 31.436011904761926)"><path d="M-1.67 -1.86 C47.07 -2.13, 90.08 0.26, 135.66 0.44 M0.58 0.48 C45.93 0.96, 91.4 0.33, 134.91 0.48 M132.94 1.68 C133.19 12.24, 134.27 24.34, 133.68 63.3 M134.57 0.84 C133.43 12.15, 132.77 25.49, 133.38 63.36 M135.36 63.05 C89.7 65.14, 41.42 63.18, 1.28 63.9 M134.62 63.81 C84.35 62.76, 34.16 64.12, -0.35 63.39 M1.18 62.21 C1.06 46.18, 0.74 30.97, 1.24 0.3 M0.67 63.42 C0.57 47.37, 0.86 31.99, 0.14 -0.42" stroke="#000000" stroke-width="1" fill="none"></path></g><g transform="translate(857.619360544728 611.4576827760728) rotate(0 62 10)"><text x="62" y="14" font-family="Virgil, Segoe UI Emoji" font-size="16px" fill="#000000" text-anchor="middle" style="white-space: pre;" direction="ltr">Cad processor</text></g><g stroke-linecap="round"><g transform="translate(198.7896522270447 628.8500507302846) rotate(0 323.42444318061246 1.3307890049149123)"><path d="M0.03 0.82 C107.9 1.09, 540.21 1.05, 648.26 1.49 M-1.42 0.21 C106.23 0.6, 539.25 2.22, 647.45 2.45" stroke="#000000" stroke-width="1" fill="none"></path></g><g transform="translate(198.7896522270447 628.8500507302846) rotate(0 323.42444318061246 1.3307890049149123)"><path d="M620.6 13.05 C628.27 9.27, 642.44 3.72, 648.27 2.29 M618.44 13.43 C628.86 8.47, 637.54 5.53, 647.29 3.34" stroke="#000000" stroke-width="1" fill="none"></path></g><g transform="translate(198.7896522270447 628.8500507302846) rotate(0 323.42444318061246 1.3307890049149123)"><path d="M620.66 -7.47 C628.29 -3.36, 642.43 -1.01, 648.27 2.29 M618.51 -7.09 C628.76 -5.12, 637.41 -1.13, 647.29 3.34" stroke="#000000" stroke-width="1" fill="none"></path></g></g><g transform="translate(486.600569025838 604.5366466990967) rotate(0 17.5 10.000000000000004)"><text x="0" y="14" font-family="Virgil, Segoe UI Emoji" font-size="16px" fill="#000000" text-anchor="start" style="white-space: pre;" direction="ltr">sqs*</text></g><g transform="translate(13.856326595766689 1365.9504845028832) rotate(0 361.5 10)"><text x="0" y="14" font-family="Virgil, Segoe UI Emoji" font-size="16px" fill="#000000" text-anchor="start" style="white-space: pre;" direction="ltr">* All communication between services was async (sqs) as processing was long and could fail</text></g><g stroke-linecap="round" transform="translate(111.30326130407457 1057.6641208003225) rotate(0 191.7889725534539 94.97593929893094)"><path d="M-0.9 0.18 C148.49 0.95, 294.03 -0.17, 382.56 0 M-0.2 0.24 C110.68 1.59, 220.95 1.97, 383.69 -0.28 M384.31 -1.18 C383.44 41.18, 386.29 81.91, 385.26 190.38 M382.65 -0.69 C386.16 48.97, 384.34 96.06, 383.09 190.48 M384.6 190.72 C274.09 189.97, 166.35 190.51, 1.03 190.81 M383.04 190.05 C290.53 190.41, 196.43 190.08, -0.43 189.41 M1.86 188.66 C-2.13 128.09, -1.46 68.88, -0.71 1.15 M-0.1 190.39 C0.17 146.42, 0.75 102.25, -0.42 0.52" stroke="#000000" stroke-width="1" fill="none"></path></g><g stroke-linecap="round"><g transform="translate(187.97958276874692 1059.6005036963443) rotate(0 0.4132266708939909 94.17299536096397)"><path d="M-0.56 0.52 C-0.21 32.04, 0.92 157.44, 1.19 188.6 M1.35 -0.25 C1.61 30.98, 0.44 155.47, 0.26 186.95" stroke="#000000" stroke-width="1" fill="none"></path></g></g><g stroke-linecap="round"><g transform="translate(114.52988930086508 1099.5839631690005) rotate(0 189.72694115172607 -3.050535690055483)"><path d="M0.65 0.16 C63.8 -0.74, 316.65 -3.84, 379.92 -4.68 M-0.46 -0.81 C62.4 -2.08, 315.39 -5.25, 378.71 -6.26" stroke="#000000" stroke-width="1" fill="none"></path></g></g><g stroke-linecap="round"><g transform="translate(116.99412269930258 1130.2842195166568) rotate(0 188.13692423142658 -0.14873833149829352)"><path d="M0.28 0.76 C63.19 0.69, 314.64 0.66, 377.31 0.53 M-1.03 0.12 C61.81 -0.36, 314.13 -0.68, 376.88 -1.06" stroke="#000000" stroke-width="1" fill="none"></path></g></g><g stroke-linecap="round"><g transform="translate(116.57017250399008 1174.4508149756412) rotate(0 189.46412521744097 -3.5286620110620106)"><path d="M0.5 -0.15 C63.71 -1.18, 316.66 -4.14, 379.63 -5.11 M-0.7 -1.27 C62.36 -2.13, 315.32 -6.32, 378.89 -6.91" stroke="#000000" stroke-width="1" fill="none"></path></g></g><g stroke-linecap="round"><g transform="translate(115.89292641024008 1215.3155915869693) rotate(0 190.60138508168515 -1.8573946107608208)"><path d="M0.69 -1.19 C64.26 -2.08, 318.27 -4.07, 381.61 -4.51 M-0.41 0.79 C63.05 0.02, 317.63 -1.99, 381.01 -3.12" stroke="#000000" stroke-width="1" fill="none"></path></g></g><g transform="translate(112.94528101093442 998.2943208350163) rotate(0 48 10)"><text x="0" y="14" font-family="Virgil, Segoe UI Emoji" font-size="16px" fill="#000000" text-anchor="start" style="white-space: pre;" direction="ltr">permulations</text></g><g transform="translate(138.3171440877877 1031.5444904559738) rotate(0 9.5 10)"><text x="0" y="14" font-family="Virgil, Segoe UI Emoji" font-size="16px" fill="#000000" text-anchor="start" style="white-space: pre;" direction="ltr">Id</text></g><g transform="translate(215.92582728366347 1031.2740249706712) rotate(0 28.5 10)"><text x="0" y="14" font-family="Virgil, Segoe UI Emoji" font-size="16px" fill="#000000" text-anchor="start" style="white-space: pre;" direction="ltr">Status</text></g><g transform="translate(368.9851534555385 1033.9119474695863) rotate(0 21 10)"><text x="0" y="14" font-family="Virgil, Segoe UI Emoji" font-size="16px" fill="#000000" text-anchor="start" style="white-space: pre;" direction="ltr">score</text></g><g stroke-linecap="round"><g transform="translate(336.8055066456425 1059.7412626551331) rotate(0 -0.19898943677543457 93.76441348426974)"><path d="M-1.19 -0.47 C-0.94 30.93, 0.42 156.36, 0.79 187.73 M0.39 -1.76 C0.51 29.9, -0.32 157.48, -0.35 189.29" stroke="#000000" stroke-width="1" fill="none"></path></g></g><g stroke-linecap="round" transform="translate(1531.95568875249 845.9870966144683) rotate(0 67 31.436011904761926)"><path d="M1.84 1.37 C32.24 0.83, 59.76 -1.82, 135.89 -0.38 M-0.04 0.34 C46.15 -0.21, 89.89 -1.49, 134.43 -0.57 M135.74 -1.71 C135.35 21.7, 132.24 42.77, 134.37 62.96 M134.26 0.65 C134.23 13.73, 132.72 28.26, 133.86 63.21 M134.43 61.19 C99.24 64.16, 68.73 62.97, 0.38 62.91 M134.92 61.91 C102.67 61.41, 73.18 62.5, 0.04 63.61 M-0.85 62.45 C-2.33 44.79, 0.1 25.99, -0.81 1.53 M0.67 63.7 C0.25 39.96, 0.41 16.04, 0.85 -0.63" stroke="#000000" stroke-width="1" fill="none"></path></g><g transform="translate(1536.95568875249 867.4231085192303) rotate(0 62 10)"><text x="62" y="14" font-family="Virgil, Segoe UI Emoji" font-size="16px" fill="#000000" text-anchor="middle" style="white-space: pre;" direction="ltr">ml cv model*</text></g><g transform="translate(1517.626831330615 922.7418035875896) rotate(0 85.5 20)"><text x="0" y="14" font-family="Virgil, Segoe UI Emoji" font-size="16px" fill="#000000" text-anchor="start" style="white-space: pre;" direction="ltr">u^2net  segmentation</text><text x="0" y="34" font-family="Virgil, Segoe UI Emoji" font-size="16px" fill="#000000" text-anchor="start" style="white-space: pre;" direction="ltr"> model</text></g><g stroke-linecap="round" transform="translate(1292.5170290845208 843.5074823566558) rotate(0 82 31.436011904761926)"><path d="M0.85 0.9 C58.22 0.28, 116.72 -0.78, 163.05 -0.67 M0.68 0.32 C47.82 -0.07, 97.3 -0.53, 164.75 -0.08 M165.64 0.93 C165.01 21.06, 162.74 39.88, 163.88 62.4 M164.73 0.69 C163.4 15.65, 162.96 33.86, 163.24 63.26 M165.3 61.81 C122.61 65.1, 77.67 65.07, -0.63 64.41 M164.95 63.57 C113.34 62.47, 60.26 62.89, 0.54 62.32 M0.86 64.64 C0.54 48.31, 0.16 33.84, -0.45 -0.85 M0.95 63.45 C-0.73 46.52, -0.21 28.72, 0.88 -0.78" stroke="#000000" stroke-width="1" fill="none"></path></g><g transform="translate(1297.2760290845208 864.9434942614178) rotate(0 77 10)"><text x="77" y="14" font-family="Virgil, Segoe UI Emoji" font-size="16px" fill="#000000" text-anchor="middle" style="white-space: pre;" direction="ltr">image preparation</text></g><g stroke-linecap="round"><g transform="translate(1464.5231936353025 874.0389864967976) rotate(0 32.461708832955765 1.2643212190158692)"><path d="M0.18 -1.14 C11.34 -0.34, 55.25 3.12, 66.1 3.67 M-1.18 0.87 C9.93 1.42, 54.46 1.5, 65.37 1.85" stroke="#000000" stroke-width="1" fill="none"></path></g><g transform="translate(1464.5231936353025 874.0389864967976) rotate(0 32.461708832955765 1.2643212190158692)"><path d="M35.12 12.36 C44.59 8.71, 48.6 6.7, 63.49 2.48 M36.09 11.41 C47.51 9.33, 56.45 5.47, 65.96 2.72" stroke="#000000" stroke-width="1" fill="none"></path></g><g transform="translate(1464.5231936353025 874.0389864967976) rotate(0 32.461708832955765 1.2643212190158692)"><path d="M35.44 -8.15 C44.64 -7.1, 48.58 -4.4, 63.49 2.48 M36.41 -9.11 C47.89 -4.07, 56.73 -0.81, 65.96 2.72" stroke="#000000" stroke-width="1" fill="none"></path></g></g><g stroke-linecap="round" transform="translate(1784.7267458813958 841.3929193683746) rotate(0 67 31.436011904761926)"><path d="M1.06 1.78 C46.47 -1.56, 92.93 0.86, 132.1 1.61 M-0.73 -0.06 C32.8 0.47, 64.32 1.17, 134.44 0.13 M134.12 -1.73 C132.36 23.87, 135.34 44.98, 133.05 61.56 M134.86 0.62 C135.37 15.21, 133.7 27.83, 133.58 62.75 M134.44 63.67 C106.19 65.21, 79.54 62.86, 1.05 63.97 M134.68 62.25 C84.18 64.76, 31.8 63.99, -0.76 62.6 M1.62 62.71 C0.21 38.81, 1.68 15.16, -0.63 -1.28 M-0.6 62.86 C-0.41 49.61, 0.61 37.16, -0.39 -0.1" stroke="#000000" stroke-width="1" fill="none"></path></g><g transform="translate(1789.7267458813958 852.8289312731365) rotate(0 62 20)"><text x="62" y="14" font-family="Virgil, Segoe UI Emoji" font-size="16px" fill="#000000" text-anchor="middle" style="white-space: pre;" direction="ltr">Image post </text><text x="62" y="34" font-family="Virgil, Segoe UI Emoji" font-size="16px" fill="#000000" text-anchor="middle" style="white-space: pre;" direction="ltr">processing*</text></g><g stroke-linecap="round" transform="translate(1051.4117129224114 841.6687372394683) rotate(0 82 31.436011904761926)"><path d="M-0.83 0.96 C45.85 -0.4, 89.8 0.94, 163.94 0.69 M0.83 -0.77 C34.33 0.23, 67.36 1.36, 164.75 -0.39 M162.68 -1.44 C163.27 16.26, 164.96 31.78, 162.6 61.91 M163.34 0.11 C163.77 14.1, 162.72 30.5, 163.09 63.52 M163.33 61.44 C123.35 62.76, 82.37 61.84, -0.41 62.98 M164.76 63.45 C126.58 63.38, 88.18 64.49, -0.42 62.54 M0.39 63.37 C0.18 41.89, -2 18.51, -0.01 1.56 M0.37 63.61 C-1.02 38.02, 0.38 15.55, -0.26 -0.95" stroke="#000000" stroke-width="1" fill="none"></path></g><g transform="translate(1056.1707129224114 863.1047491442303) rotate(0 77 10)"><text x="77" y="14" font-family="Virgil, Segoe UI Emoji" font-size="16px" fill="#000000" text-anchor="middle" style="white-space: pre;" direction="ltr">geometry cleanup</text></g><g stroke-linecap="round"><g transform="translate(1222.9312746899896 874.3370449862277) rotate(0 32.317934690988636 -0.5247202285100911)"><path d="M0.94 0.53 C11.84 0.43, 54.26 0.2, 64.67 -0.02 M-0.03 -0.24 C10.85 -0.69, 53.73 -1.72, 64.12 -1.57" stroke="#000000" stroke-width="1" fill="none"></path></g><g transform="translate(1222.9312746899896 874.3370449862277) rotate(0 32.317934690988636 -0.5247202285100911)"><path d="M36.9 10.2 C44.47 5.34, 49.86 3.66, 63.68 -1.25 M36.81 8.19 C45.74 4.14, 55.65 1.2, 63.25 -1.51" stroke="#000000" stroke-width="1" fill="none"></path></g><g transform="translate(1222.9312746899896 874.3370449862277) rotate(0 32.317934690988636 -0.5247202285100911)"><path d="M36.73 -10.32 C44.45 -10.31, 49.87 -7.12, 63.68 -1.25 M36.65 -12.34 C45.71 -9.08, 55.68 -4.71, 63.25 -1.51" stroke="#000000" stroke-width="1" fill="none"></path></g></g><g stroke-linecap="round"><g transform="translate(1671.5543826001463 878.4446321334724) rotate(0 52.212210131562415 -0.6158712924146528)"><path d="M-0.22 0.74 C17.32 0.3, 88.41 -1.59, 106.22 -1.98 M-1.8 0.09 C15.47 -0.25, 87.14 -0.61, 105.09 -0.66" stroke="#000000" stroke-width="1" fill="none"></path></g><g transform="translate(1671.5543826001463 878.4446321334724) rotate(0 52.212210131562415 -0.6158712924146528)"><path d="M78.18 9.14 C86.89 5.95, 98.32 0.64, 104.72 -2.28 M76.59 9.31 C86.01 7.36, 93.18 3.26, 105.09 0.21" stroke="#000000" stroke-width="1" fill="none"></path></g><g transform="translate(1671.5543826001463 878.4446321334724) rotate(0 52.212210131562415 -0.6158712924146528)"><path d="M78.09 -11.38 C86.96 -6.77, 98.41 -4.26, 104.72 -2.28 M76.5 -11.21 C85.95 -7.18, 93.15 -5.3, 105.09 0.21" stroke="#000000" stroke-width="1" fill="none"></path></g></g><g stroke-linecap="round" transform="translate(1992.7174633783734 840.9126724670527) rotate(0 67 31.436011904761926)"><path d="M-0.54 1.13 C30.85 1.28, 62.9 0.77, 134.44 -1.87 M-0.25 -0.69 C52.97 -0.07, 106.67 -0.83, 134.68 -0.29 M133.19 1.18 C133.08 20.48, 132.96 40.78, 135.67 61.09 M133.43 -0.28 C133.64 14.34, 133.3 25.83, 133.69 63 M134.32 62.7 C95.2 63.4, 53.01 61.49, 0.1 61.31 M134.32 63.37 C102.9 61.71, 72.9 62.84, -0.69 63.6 M-1.57 62.46 C1.85 47.47, 2.14 30.6, 0.18 -1.66 M0.27 63.87 C-0.93 42.9, -0.72 22.15, -0.89 0.71" stroke="#000000" stroke-width="1" fill="none"></path></g><g transform="translate(1997.7174633783734 852.3486843718147) rotate(0 62 20)"><text x="62" y="14" font-family="Virgil, Segoe UI Emoji" font-size="16px" fill="#000000" text-anchor="middle" style="white-space: pre;" direction="ltr">Vector post </text><text x="62" y="34" font-family="Virgil, Segoe UI Emoji" font-size="16px" fill="#000000" text-anchor="middle" style="white-space: pre;" direction="ltr">processing*</text></g><g stroke-linecap="round"><g transform="translate(1926.039878024275 877.2419810470633) rotate(0 31.858484683185793 -3.2651594239131043)"><path d="M-0.71 -0.5 C10.12 -1.4, 53.65 -5, 64.43 -6.03 M1.12 -1.81 C11.84 -2.49, 53.23 -4.06, 63.53 -4.76" stroke="#000000" stroke-width="1" fill="none"></path></g><g transform="translate(1926.039878024275 877.2419810470633) rotate(0 31.858484683185793 -3.2651594239131043)"><path d="M35.06 7.1 C42.2 3.43, 48.19 0.37, 65.17 -2.76 M35.63 7.03 C43.48 4.25, 52.96 0.04, 63.68 -4.22" stroke="#000000" stroke-width="1" fill="none"></path></g><g transform="translate(1926.039878024275 877.2419810470633) rotate(0 31.858484683185793 -3.2651594239131043)"><path d="M34.02 -13.39 C41.31 -11.8, 47.56 -9.6, 65.17 -2.76 M34.58 -13.47 C42.82 -9.95, 52.62 -7.85, 63.68 -4.22" stroke="#000000" stroke-width="1" fill="none"></path></g></g><g transform="translate(2013.205182893561 922.8464910254747) rotate(0 122.5 60)"><text x="0" y="14" font-family="Virgil, Segoe UI Emoji" font-size="16px" fill="#000000" text-anchor="start" style="white-space: pre;" direction="ltr">*skeletonize</text><text x="0" y="34" font-family="Virgil, Segoe UI Emoji" font-size="16px" fill="#000000" text-anchor="start" style="white-space: pre;" direction="ltr">Visvalingam-Whyatt</text><text x="0" y="54" font-family="Virgil, Segoe UI Emoji" font-size="16px" fill="#000000" text-anchor="start" style="white-space: pre;" direction="ltr">from simplification.cutil (python)</text><text x="0" y="74" font-family="Virgil, Segoe UI Emoji" font-size="16px" fill="#000000" text-anchor="start" style="white-space: pre;" direction="ltr">clipper</text><text x="0" y="94" font-family="Virgil, Segoe UI Emoji" font-size="16px" fill="#000000" text-anchor="start" style="white-space: pre;" direction="ltr"></text><text x="0" y="114" font-family="Virgil, Segoe UI Emoji" font-size="16px" fill="#000000" text-anchor="start" style="white-space: pre;" direction="ltr"></text></g><g transform="translate(1793.847028596686 926.1993962989122) rotate(0 89 70.00000000000003)"><text x="0" y="14" font-family="Virgil, Segoe UI Emoji" font-size="16px" fill="#000000" text-anchor="start" style="white-space: pre;" direction="ltr">*skimage (python)</text><text x="0" y="34" font-family="Virgil, Segoe UI Emoji" font-size="16px" fill="#000000" text-anchor="start" style="white-space: pre;" direction="ltr">skimage.morphology</text><text x="0" y="54" font-family="Virgil, Segoe UI Emoji" font-size="16px" fill="#000000" text-anchor="start" style="white-space: pre;" direction="ltr"></text><text x="0" y="74" font-family="Virgil, Segoe UI Emoji" font-size="16px" fill="#000000" text-anchor="start" style="white-space: pre;" direction="ltr">binary closing, erosion, </text><text x="0" y="94" font-family="Virgil, Segoe UI Emoji" font-size="16px" fill="#000000" text-anchor="start" style="white-space: pre;" direction="ltr">dilation square, </text><text x="0" y="114" font-family="Virgil, Segoe UI Emoji" font-size="16px" fill="#000000" text-anchor="start" style="white-space: pre;" direction="ltr">remove small objects, </text><text x="0" y="134" font-family="Virgil, Segoe UI Emoji" font-size="16px" fill="#000000" text-anchor="start" style="white-space: pre;" direction="ltr">find contours</text></g><g transform="translate(1305.116071565436 931.3618108496935) rotate(0 19 10)"><text x="0" y="14" font-family="Virgil, Segoe UI Emoji" font-size="16px" fill="#000000" text-anchor="start" style="white-space: pre;" direction="ltr">*PIL</text></g><g stroke-linecap="round" transform="translate(1017.0674875810608 816.7811834082872) rotate(0 647.6386108398438 137.8647766113281)"><path d="M0.25 -0.11 C511.49 -3.88, 1023.64 -3.32, 1295.01 -0.25 M0.23 0.1 C478.69 -1.36, 957.13 -0.79, 1295.28 0.18 M1294.83 -0.19 C1295.89 61.8, 1297.88 124.04, 1295.01 275.01 M1295.36 -0.1 C1295.15 103.25, 1294.59 205.51, 1295.04 275.36 M1295.7 276.51 C938.67 274.32, 581.15 273.21, 0.15 276.29 M1294.92 275.51 C877.6 270.83, 460.13 270.73, -0.07 275.51 M-0.14 277.13 C-0.69 167.98, -0.44 57.27, 0.65 -1.09 M-0.76 275.65 C0.61 171.86, -0.3 67.14, -0.46 -0.63" stroke="#000000" stroke-width="1" fill="none"></path></g><g transform="translate(1052.1757029130922 785.2540837989122) rotate(0 80.5 10)"><text x="0" y="14" font-family="Virgil, Segoe UI Emoji" font-size="16px" fill="#000000" text-anchor="start" style="white-space: pre;" direction="ltr">CAD Logical process</text></g><g stroke-linecap="round"><g transform="translate(936.6810837169807 663.0542422128859) rotate(0 47.2627334612269 72.14193134077739)"><path d="M0.65 1.08 C16.53 24.96, 79.1 120.04, 94.99 143.68 M-0.47 0.61 C15.29 24.13, 78.03 118.79, 94.08 142.15" stroke="#000000" stroke-width="1" fill="none"></path></g><g transform="translate(936.6810837169807 663.0542422128859) rotate(0 47.2627334612269 72.14193134077739)"><path d="M71.63 124.6 C78.46 131.02, 83.84 133.33, 93.18 143.67 M70.64 124.58 C74.27 127.49, 79.55 131.74, 93.47 141.24" stroke="#000000" stroke-width="1" fill="none"></path></g><g transform="translate(936.6810837169807 663.0542422128859) rotate(0 47.2627334612269 72.14193134077739)"><path d="M88.65 113.14 C90.83 122.81, 91.53 128.28, 93.18 143.67 M87.67 113.12 C87.95 118.3, 89.79 124.86, 93.47 141.24" stroke="#000000" stroke-width="1" fill="none"></path></g></g><g transform="translate(422.689835942606 652.8322054080702) rotate(0 170.5 19.999999999999993)"><text x="0" y="14" font-family="Virgil, Segoe UI Emoji" font-size="16px" fill="#000000" text-anchor="start" style="white-space: pre;" direction="ltr">Hyperparameters for ml and traditional cv </text><text x="0" y="34" font-family="Virgil, Segoe UI Emoji" font-size="16px" fill="#000000" text-anchor="start" style="white-space: pre;" direction="ltr">(image size, gap closing, rescale, etc)</text></g><g stroke-linecap="round" transform="translate(87.29263755316038 839.958496845481) rotate(0 64.00360979352683 62.85653795514787)"><path d="M89.63 5.24 C98.71 7.77, 107.9 15.23, 114.11 22.68 C120.32 30.14, 124.89 40.43, 126.9 49.97 C128.91 59.51, 128.88 70.56, 126.18 79.91 C123.48 89.26, 117.76 98.84, 110.7 106.07 C103.65 113.29, 93.16 119.95, 83.85 123.25 C74.54 126.55, 64.58 127.46, 54.85 125.84 C45.13 124.23, 33.54 119.45, 25.51 113.58 C17.48 107.7, 10.78 99.56, 6.65 90.59 C2.52 81.62, 0.36 69.46, 0.72 59.77 C1.07 50.08, 3.85 40.77, 8.8 32.44 C13.74 24.11, 22.2 15.16, 30.38 9.79 C38.55 4.42, 47.67 0.87, 57.84 0.25 C68.01 -0.37, 85.66 5.01, 91.4 6.09 C97.14 7.16, 92.95 5.82, 92.28 6.69 M81.93 1.45 C91.63 3.3, 103.32 10.24, 110.45 17.41 C117.58 24.58, 121.83 35, 124.72 44.48 C127.61 53.95, 129.25 64.84, 127.78 74.28 C126.31 83.72, 122.36 93.39, 115.92 101.11 C109.47 108.83, 98.3 116.57, 89.13 120.59 C79.96 124.6, 70.53 125.72, 60.9 125.17 C51.28 124.62, 40.17 122.37, 31.37 117.29 C22.57 112.2, 13.33 102.87, 8.11 94.65 C2.88 86.43, 0.44 77.26, 0.03 67.96 C-0.38 58.65, 1.82 47.92, 5.64 38.82 C9.46 29.73, 15.36 19.72, 22.95 13.41 C30.53 7.09, 40.97 2.57, 51.17 0.92 C61.36 -0.74, 78.74 2.91, 84.1 3.48 C89.45 4.06, 84.09 3.26, 83.31 4.37" stroke="#000000" stroke-width="1" fill="none"></path></g><g transform="translate(92.29263755316038 890.3150348006288) rotate(0 59.003609793526834 12.5)"><text x="59.003609793526834" y="18" font-family="Virgil, Segoe UI Emoji" font-size="20px" fill="#000000" text-anchor="middle" style="white-space: pre;" direction="ltr">redis</text></g><g stroke-linecap="round"><g transform="translate(164.84757023470968 670.9455250939549) rotate(0 0.3056069080689454 76.06015626542928)"><path d="M0.48 0.13 C0.53 25.42, 1.37 126.2, 1.33 151.72 M-0.72 -0.84 C-0.87 24.6, 0.74 127.59, 0.74 152.96" stroke="#000000" stroke-width="1" fill="none"></path></g><g transform="translate(164.84757023470968 670.9455250939549) rotate(0 0.3056069080689454 76.06015626542928)"><path d="M-9.54 125.98 C-6.61 135.08, 0 145.99, 1.75 153.21 M-9.96 124.46 C-6.93 134.17, -2.98 143.62, 0.94 153.83" stroke="#000000" stroke-width="1" fill="none"></path></g><g transform="translate(164.84757023470968 670.9455250939549) rotate(0 0.3056069080689454 76.06015626542928)"><path d="M10.98 125.8 C5.92 135.06, 4.55 146.03, 1.75 153.21 M10.56 124.28 C6.78 134.02, 3.93 143.53, 0.94 153.83" stroke="#000000" stroke-width="1" fill="none"></path></g></g><g stroke-linecap="round"><g transform="translate(1822.4514900267518 789.5878690971533) rotate(0 -285.7021917096646 -323.6086399658533)"><path d="M-0.77 0.13 C-96.07 -107.7, -476.54 -539.43, -571.7 -647.35 M1.03 -0.84 C-94.41 -108.52, -476.88 -538.64, -572.44 -646.27" stroke="#000000" stroke-width="1" fill="none"></path></g><g transform="translate(1822.4514900267518 789.5878690971533) rotate(0 -285.7021917096646 -323.6086399658533)"><path d="M-545.82 -631.34 C-555.69 -636.02, -564.05 -640.15, -570.77 -644.58 M-545.85 -631.03 C-553.82 -636.57, -562.37 -640.55, -572.29 -647.2" stroke="#000000" stroke-width="1" fill="none"></path></g><g transform="translate(1822.4514900267518 789.5878690971533) rotate(0 -285.7021917096646 -323.6086399658533)"><path d="M-561.16 -617.71 C-566.2 -626.55, -569.77 -634.93, -570.77 -644.58 M-561.19 -617.4 C-564.54 -626.85, -568.58 -634.84, -572.29 -647.2" stroke="#000000" stroke-width="1" fill="none"></path></g></g><g transform="translate(1585.6544403347739 465.8855446441269) rotate(0 37.5 20)"><text x="0" y="14" font-family="Virgil, Segoe UI Emoji" font-size="16px" fill="#000000" text-anchor="start" style="white-space: pre;" direction="ltr">Upload</text><text x="0" y="34" font-family="Virgil, Segoe UI Emoji" font-size="16px" fill="#000000" text-anchor="start" style="white-space: pre;" direction="ltr">artifacts</text></g><g stroke-linecap="round"><g transform="translate(841.2858677418632 596.5526779539421) rotate(0 -319.6213298566939 3.595899499609782)"><path d="M-0.7 0.35 C-107.22 1.29, -532.91 5.39, -639.14 6.3 M1.13 -0.52 C-105.59 0.55, -533.76 6.49, -640.37 7.71" stroke="#000000" stroke-width="1" fill="none"></path></g><g transform="translate(841.2858677418632 596.5526779539421) rotate(0 -319.6213298566939 3.595899499609782)"><path d="M-611.74 -3.83 C-620.97 0.92, -630.05 4.29, -638.76 9.29 M-612.48 -2.23 C-621.47 0.32, -629.18 4.11, -640.44 7.68" stroke="#000000" stroke-width="1" fill="none"></path></g><g transform="translate(841.2858677418632 596.5526779539421) rotate(0 -319.6213298566939 3.595899499609782)"><path d="M-611.48 16.69 C-620.9 15.37, -630.06 12.68, -638.76 9.29 M-612.22 18.29 C-621.4 14.7, -629.19 12.34, -640.44 7.68" stroke="#000000" stroke-width="1" fill="none"></path></g></g><g transform="translate(115.90058479941183 1261.8889688725167) rotate(0 409.5 30)"><text x="0" y="14" font-family="Virgil, Segoe UI Emoji" font-size="16px" fill="#000000" text-anchor="start" style="white-space: pre;" direction="ltr">* When all results arrived pick the best performing one (num of rooms baed on size, vertices per room, </text><text x="0" y="34" font-family="Virgil, Segoe UI Emoji" font-size="16px" fill="#000000" text-anchor="start" style="white-space: pre;" direction="ltr">avg wall width, etc) </text><text x="0" y="54" font-family="Virgil, Segoe UI Emoji" font-size="16px" fill="#000000" text-anchor="start" style="white-space: pre;" direction="ltr">in future give users a chance to view options</text></g></svg>